<?xml version="1.0" encoding="utf-8"?>
<!-- Generator: Adobe Illustrator 27.1.0, SVG Export Plug-In . SVG Version: 6.00 Build 0)  -->
<svg version="1.1" id="Capa_1" xmlns="http://www.w3.org/2000/svg" xmlns:xlink="http://www.w3.org/1999/xlink" x="0px" y="0px"
	 viewBox="0 0 104 100" style="enable-background:new 0 0 104 100;" xml:space="preserve">
<style type="text/css">
	.st0{fill-rule:evenodd;clip-rule:evenodd;fill:#E0232F;}
</style>
<g id="Helping-You-Plan">
	<g id="Desktop----Getting-Around" transform="translate(-1256.000000, -2012.000000)">
		<g id="Bus-Travel" transform="translate(720.000000, 1970.000000)">
			<g id="Copy" transform="translate(42.000000, 42.000000)">
				<g id="Page-1" transform="translate(494.000000, 0.000000)">
					<g id="Clip-2">
					</g>
					<path id="Fill-1" class="st0" d="M24.2,97.4H34v-7.5h-9.9v7.5H24.2z M35.3,100H22.8c-0.7,0-1.3-0.6-1.3-1.3V88.6
						c0-0.7,0.6-1.3,1.3-1.3h12.5c0.7,0,1.3,0.6,1.3,1.3v10.1C36.6,99.4,36.1,100,35.3,100L35.3,100z"/>
					<path id="Fill-3" class="st0" d="M69,97.4h9.9v-7.5H69V97.4z M80.2,100H67.7c-0.7,0-1.3-0.6-1.3-1.3V88.6
						c0-0.7,0.6-1.3,1.3-1.3h12.5c0.7,0,1.3,0.6,1.3,1.3v10.1C81.5,99.4,80.9,100,80.2,100L80.2,100z"/>
					<path id="Fill-5" class="st0" d="M25.8,16.8c-1.7,0-3,1.2-3,2.6v25.8c0,2.2,1.1,4.2,3,5.5c3.8,2.5,11.3,5.5,25.7,5.5
						s21.9-3,25.7-5.5c1.9-1.3,3-3.3,3-5.5V19.4c0-1.5-1.3-2.6-3-2.6H25.8z M51.5,58.7c-15.2,0-23.3-3.3-27.4-6
						C21.5,51,20,48.2,20,45.3V19.4c0-2.8,2.6-5.1,5.8-5.1h51.5c3.2,0,5.8,2.3,5.8,5.1v25.8c0,2.9-1.5,5.7-4.1,7.4
						C74.8,55.4,66.7,58.7,51.5,58.7L51.5,58.7z"/>
					<path id="Fill-6" class="st0" d="M13.1,51.5H4.7c-0.7,0-1.3-0.6-1.3-1.3s0.6-1.3,1.3-1.3h8.4c0.7,0,1.3,0.6,1.3,1.3
						S13.9,51.5,13.1,51.5"/>
					<path id="Fill-7" class="st0" d="M4.7,51.5c-0.7,0-1.3-0.6-1.3-1.3V39.1c0-0.7,0.6-1.3,1.3-1.3S6,38.4,6,39.1v11.1
						C6,50.9,5.4,51.5,4.7,51.5"/>
					<path id="Fill-8" class="st0" d="M8.2,20.2h-7v19.4h7V20.2z"/>
					<path id="Fill-9" class="st0" d="M2.4,38.5H7V21.4H2.4V38.5z M8.2,40.9h-7c-0.7,0-1.2-0.5-1.2-1.2V20.2C0,19.5,0.5,19,1.2,19h7
						c0.7,0,1.2,0.5,1.2,1.2v19.4C9.4,40.3,8.9,40.9,8.2,40.9L8.2,40.9z"/>
					<path id="Fill-10" class="st0" d="M98.3,51.5h-8.4c-0.7,0-1.3-0.6-1.3-1.3s0.6-1.3,1.3-1.3h8.4c0.7,0,1.3,0.6,1.3,1.3
						C99.6,50.9,99,51.5,98.3,51.5"/>
					<path id="Fill-11" class="st0" d="M98.3,51.5c-0.7,0-1.3-0.6-1.3-1.3V39.1c0-0.7,0.6-1.3,1.3-1.3c0.7,0,1.3,0.6,1.3,1.3v11.1
						C99.6,50.9,99,51.5,98.3,51.5"/>
					<path id="Fill-12" class="st0" d="M94.8,20.2h7v19.4h-7V20.2z"/>
					<path id="Fill-13" class="st0" d="M96,38.5h4.7V21.4H96V38.5z M101.8,40.9h-7c-0.7,0-1.2-0.5-1.2-1.2V20.2
						c0-0.7,0.5-1.2,1.2-1.2h7c0.7,0,1.2,0.5,1.2,1.2v19.4C103,40.3,102.5,40.9,101.8,40.9L101.8,40.9z"/>
					<path id="Fill-15" class="st0" d="M23.8,78.3h10.5v-3.9H23.8V78.3z M35.6,80.7h-13c-0.7,0-1.2-0.5-1.2-1.2v-6.4
						c0-0.7,0.5-1.2,1.2-1.2h13c0.7,0,1.2,0.5,1.2,1.2v6.4C36.8,80.2,36.2,80.7,35.6,80.7L35.6,80.7z"/>
					<path id="Fill-17" class="st0" d="M68.7,78.3h10.5v-3.9H68.7V78.3z M80.4,80.7h-13c-0.7,0-1.2-0.5-1.2-1.2v-6.4
						c0-0.7,0.5-1.2,1.2-1.2h13c0.7,0,1.2,0.5,1.2,1.2v6.4C81.6,80.2,81.1,80.7,80.4,80.7L80.4,80.7z"/>
					<path id="Fill-18" class="st0" d="M67.4,10.7H35.6c-0.7,0-1.2-0.5-1.2-1.2s0.5-1.2,1.2-1.2h31.9c0.7,0,1.2,0.5,1.2,1.2
						C68.7,10.1,68.1,10.7,67.4,10.7"/>
					<path id="Fill-19" class="st0" d="M58.7,74.8H44.3c-0.7,0-1.2-0.5-1.2-1.2s0.5-1.2,1.2-1.2h14.3c0.7,0,1.2,0.5,1.2,1.2
						S59.3,74.8,58.7,74.8"/>
					<path id="Fill-20" class="st0" d="M58.7,70.1H44.3c-0.7,0-1.2-0.5-1.2-1.2s0.5-1.2,1.2-1.2h14.3c0.7,0,1.2,0.5,1.2,1.2
						S59.3,70.1,58.7,70.1"/>
					<path id="Fill-21" class="st0" d="M58.7,79.5H44.3c-0.7,0-1.2-0.5-1.2-1.2s0.5-1.2,1.2-1.2h14.3c0.7,0,1.2,0.5,1.2,1.2
						S59.3,79.5,58.7,79.5"/>
					<path id="Fill-22" class="st0" d="M88.3,79.7c0,4.2-3.4,7.6-7.6,7.6H22.3c-4.2,0-7.6-3.4-7.6-7.6V11.6c0-4.2,3.4-7.6,7.6-7.6
						h58.5c4.2,0,7.6,3.4,7.6,7.6L88.3,79.7L88.3,79.7z M80.7,1.3H61.8c0-0.7-0.3-1.2-0.7-1.2H41.9c-0.4,0-0.7,0.5-0.7,1.2H22.3
						C16.6,1.3,12,5.9,12,11.6v68.1c0,5.6,4.6,10.2,10.2,10.2h58.5c5.6,0,10.2-4.6,10.2-10.2V11.6C91,5.9,86.4,1.3,80.7,1.3
						L80.7,1.3z"/>
				</g>
			</g>
		</g>
	</g>
</g>
</svg>
