<!DOCTYPE svg PUBLIC "-//W3C//DTD SVG 1.1//EN" "http://www.w3.org/Graphics/SVG/1.1/DTD/svg11.dtd">
<!-- Uploaded to: SVG Repo, www.svgrepo.com, Transformed by: SVG Repo Mixer Tools -->
<svg fill="#d00000" height="64px" width="64px" version="1.1" id="Layer_1" xmlns="http://www.w3.org/2000/svg" xmlns:xlink="http://www.w3.org/1999/xlink" viewBox="0 0 508 508" xml:space="preserve">
<g id="SVGRepo_bgCarrier" stroke-width="0"/>
<g id="SVGRepo_tracerCarrier" stroke-linecap="round" stroke-linejoin="round"/>
<g id="SVGRepo_iconCarrier"> <g> <g> <path d="M493.9,306.35h-52v-46.1c8-4.3,15.9-8.8,23.8-13.7c4.2-2.6,6.7-7.1,6.7-12v-88.6c0-41.4-33.7-75.2-75.2-75.2H334v-28.4 c0-23.3-19-42.3-42.3-42.3h-75.4c-23.3,0-42.3,19-42.3,42.3v28.3h-63.2c-41.4,0-75.2,33.7-75.2,75.2v88.6c0,4.9,2.5,9.4,6.7,12 c7.9,4.9,15.8,9.4,23.8,13.7v46.1h-52c-7.8,0-14.1,6.3-14.1,14.1v79.9c0,30.8,25.1,55.9,55.9,55.9h10.2v7.2 c0,24.6,20,44.6,44.6,44.6h286.6c24.6,0,44.6-20,44.6-44.6v-7.2h10.2c30.8,0,55.9-25.1,55.9-55.9v-79.9 C508,312.65,501.7,306.35,493.9,306.35z M66.1,428.05H55.9c-15.2,0-27.6-12.4-27.6-27.6v-65.8h37.8V428.05z M202.2,42.35 c0-7.8,6.3-14.1,14.1-14.1h75.4c7.8,0,14.1,6.3,14.1,14.1v28.3H202.2V42.35z M397.3,479.85H110.7c-9,0-16.4-7.4-16.4-16.4v-189.3 c9.3,4.2,18.8,8,28.2,11.4v151.9c0,7.8,6.3,14.1,14.1,14.1h234.7c7.8,0,14.1-6.3,14.1-14.1v-151.9c9.5-3.4,18.9-7.2,28.2-11.4 v189.3h0.1C413.7,472.45,406.3,479.85,397.3,479.85z M254,338.55c7.8,0,14.1-6.3,14.1-14.1v-15.7c30.1-1.1,59.9-5.9,89.2-14.1 v128.7H150.7v-128.7c29.3,8.3,59,13,89.2,14.1v15.7C239.9,332.25,246.2,338.55,254,338.55z M253.9,280.85 c-65.4,0-129.4-18.3-190.2-54.4v-80.6h0.1c0-25.9,21-46.9,46.9-46.9h286.5c25.9,0,46.9,21.1,46.9,46.9v80.6 C383.3,262.55,319.3,280.85,253.9,280.85z M479.8,400.35c0,15.2-12.4,27.6-27.6,27.6H442v-93.5h37.8V400.35z"/> </g> </g> </g>
</svg>