<?xml version="1.0" encoding="utf-8"?>
<!-- Generator: Adobe Illustrator 27.5.0, SVG Export Plug-In . SVG Version: 6.00 Build 0)  -->
<svg version="1.1" xmlns="http://www.w3.org/2000/svg" xmlns:xlink="http://www.w3.org/1999/xlink" x="0px" y="0px"
	 viewBox="0 0 500 500" style="enable-background:new 0 0 500 500;" xml:space="preserve">
<g id="BACKGROUND">
	<rect x="250" y="250" width="250" height="250"/>
	<rect y="250" style="fill:#FFFFFF;" width="250" height="250"/>
	<rect width="250" height="250"/>
	<rect x="250" style="fill:#FFFFFF;" width="250" height="250"/>
</g>
<g id="OBJECTS">
	
		<text transform="matrix(1 0 0 1 61.7114 169.0903)" style="fill:#FFFFFF; font-family:'Quicksand-Light'; font-size:14.162px; letter-spacing:1;">MONOGRAMS</text>
	
		<text transform="matrix(1 0 0 1 319.0454 169.0903)" style="font-family:'Quicksand-Light'; font-size:14.162px; letter-spacing:1;">MONOGRAMS</text>
	
		<text transform="matrix(1 0 0 1 67.7114 415.7759)" style="font-family:'Quicksand-Light'; font-size:14.162px; letter-spacing:1;">MONOGRAMS</text>
	
		<text transform="matrix(1 0 0 1 319.7441 415.7759)" style="fill:#FFFFFF; font-family:'Quicksand-Light'; font-size:14.162px; letter-spacing:1;">MONOGRAMS</text>
	<g>
		<path style="fill:#FFFFFF;" d="M135.066,135.268c0-3.188-1.625-5.188-3.564-6.626c-1.938-1.375-4.25-2.063-5.063-2.187
			c-0.188-0.063-0.25-0.126-0.313-0.126H115.5v9.88c0,0.813-0.687,1.501-1.563,1.501c-0.813,0-1.5-0.688-1.5-1.501V95.453
			c0-0.751-0.635-1.438,0.115-1.5h1.385h0.188h12.19c6.876,0,13.125,7.654,13.125,16.249c0,5.629-3.624,13.002-7.875,15.003
			c0.188,0.125,0.376,0.188,0.625,0.313c2.876,1.625,5.876,4.813,5.876,9.751c0,2.563,0.25,4.126,0.563,5.063
			c0.25,0.75,0.563,1.001,0.625,1.063c0.688-0.063,1.438,0.313,1.687,1c0.188,0.813-0.188,1.688-1,2
			c-0.063,0-0.375,0.063-0.75,0.063h-0.125c-0.813,0-2.126-0.625-2.813-2C135.503,141.02,135.066,138.956,135.066,135.268z
			 M126.315,97.016H115.5v26.313h10.501h0.563c5.063-0.125,9.189-6.651,9.189-13.127C135.753,102.854,131.502,97.016,126.315,97.016
			z"/>
		<path style="fill:#FFFFFF;" d="M114.417,123.332H103.62l8.876-23.503l0.537,1.433c-0.027-1.756,0.582-3.257,1.559-4.426
			l-0.658-1.757c-0.188-0.563-0.764-1.125-1.451-1.125c-0.626,0-1.251,0.375-1.5,0.937l-15.239,40.756
			c-0.313,0.751,0.125,1.689,0.875,2.001c0.188,0,0.438,0.063,0.562,0.063c0.625,0,1.188-0.375,1.438-1l3.875-10.315h11.464
			C114.066,125.367,114.209,124.343,114.417,123.332z"/>
		<path style="fill:#FFFFFF;" d="M143.408,143.094c0,0.849,0.688,1.538,1.538,1.538c0.849,0,1.538-0.689,1.538-1.538
			c0-0.849-0.689-1.538-1.538-1.538C144.097,141.556,143.408,142.245,143.408,143.094z"/>
	</g>
	<path style="fill:none;stroke:#000000;stroke-width:3;stroke-miterlimit:10;" d="M368.797,131.1
		c0-13.041,10.572-23.615,23.615-23.615s23.615,10.574,23.615,23.615"/>
	<path style="fill:none;stroke:#000000;stroke-width:3;stroke-miterlimit:10;" d="M374.897,131.1
		c0-9.672,7.842-17.515,17.515-17.515c9.674,0,17.516,7.843,17.516,17.515"/>
	<path style="fill:none;stroke:#000000;stroke-width:3;stroke-miterlimit:10;" d="M381.202,131.1c0-6.19,5.02-11.21,11.21-11.21
		s11.21,5.02,11.21,11.21"/>
	<path style="fill:none;stroke:#000000;stroke-width:3;stroke-miterlimit:10;" d="M333.972,131.1
		c0-13.041,10.573-23.615,23.615-23.615c13.043,0,23.615,10.574,23.615,23.615"/>
	<path style="fill:none;stroke:#000000;stroke-width:3;stroke-miterlimit:10;" d="M340.072,131.1
		c0-9.672,7.842-17.515,17.515-17.515c9.674,0,17.516,7.843,17.516,17.515"/>
	<path style="fill:none;stroke:#000000;stroke-width:3;stroke-miterlimit:10;" d="M346.377,131.1c0-6.19,5.019-11.21,11.21-11.21
		c6.191,0,11.21,5.02,11.21,11.21"/>
	
		<rect x="101.619" y="345.263" style="fill:none;stroke:#000000;stroke-width:3;stroke-linecap:round;stroke-linejoin:round;stroke-miterlimit:10;" width="13.884" height="46"/>
	
		<rect x="101.619" y="377.191" style="fill:none;stroke:#000000;stroke-width:3;stroke-linecap:round;stroke-linejoin:round;stroke-miterlimit:10;" width="35.873" height="13.883"/>
	
		<rect x="123.116" y="324.074" style="fill:none;stroke:#000000;stroke-width:3;stroke-linecap:round;stroke-linejoin:round;stroke-miterlimit:10;" width="13.884" height="46"/>
	
		<rect x="123.116" y="356.191" style="fill:none;stroke:#000000;stroke-width:3;stroke-linecap:round;stroke-linejoin:round;stroke-miterlimit:10;" width="35.873" height="13.883"/>
	<g>
		<polygon style="fill:#4C464A;" points="363.077,385.439 369.818,385.439 359.707,354.709 352.966,354.709 		"/>
		<polygon style="fill:#2A323A;" points="358.237,370.728 359.756,354.709 354.503,359.232 		"/>
		<polygon style="fill:#FFFFFF;" points="349.528,385.439 342.787,385.439 352.897,354.709 359.639,354.709 		"/>
		<polygon style="fill:#4C464A;" points="383.4,385.439 390.142,385.439 380.031,354.709 373.29,354.709 		"/>
		<polygon style="fill:#2A323A;" points="378.505,370.509 380.047,354.709 374.795,359.232 		"/>
		<polygon style="fill:#FFFFFF;" points="369.852,385.439 363.111,385.439 373.224,354.709 379.965,354.709 		"/>
		<polygon style="fill:#4C464A;" points="403.682,385.439 410.423,385.439 400.311,354.709 393.57,354.709 		"/>
		<polygon style="fill:#2A323A;" points="398.77,370.509 400.311,354.709 395.059,359.232 		"/>
		<polygon style="fill:#FFFFFF;" points="390.131,385.439 383.392,385.439 393.502,354.709 400.243,354.709 		"/>
	</g>
</g>
<g id="DESIGNED_BY_FREEPIK">
	<g>
		<g>
			<path style="fill:#A7A5AA;" d="M179.442,485.762v-0.16c-0.219,0.25-0.434,0.453-0.647,0.609
				c-0.212,0.158-0.442,0.277-0.691,0.357c-0.249,0.084-0.519,0.123-0.813,0.123c-0.39,0-0.751-0.082-1.082-0.246
				c-0.332-0.166-0.618-0.402-0.861-0.707c-0.243-0.307-0.426-0.664-0.551-1.078c-0.125-0.414-0.188-0.861-0.188-1.34
				c0-1.018,0.249-1.811,0.745-2.379c0.497-0.568,1.15-0.852,1.961-0.852c0.468,0,0.864,0.08,1.185,0.24
				c0.322,0.162,0.636,0.41,0.942,0.742v-2.4c0-0.334,0.066-0.586,0.2-0.758c0.132-0.17,0.322-0.256,0.568-0.256
				c0.246,0,0.436,0.078,0.569,0.236c0.133,0.156,0.2,0.387,0.2,0.693v7.174c0,0.311-0.071,0.543-0.214,0.697
				c-0.143,0.154-0.328,0.232-0.555,0.232c-0.222,0-0.405-0.08-0.551-0.24C179.514,486.289,179.442,486.06,179.442,485.762z
				 M176.242,483.373c0,0.442,0.068,0.817,0.205,1.125c0.137,0.311,0.325,0.545,0.563,0.701c0.238,0.156,0.499,0.236,0.781,0.236
				c0.285,0,0.546-0.076,0.784-0.225c0.236-0.148,0.424-0.377,0.565-0.686c0.142-0.307,0.212-0.693,0.212-1.152
				c0-0.433-0.07-0.807-0.212-1.119c-0.141-0.311-0.331-0.549-0.572-0.715c-0.241-0.164-0.503-0.246-0.79-0.246
				c-0.298,0-0.564,0.084-0.798,0.254c-0.235,0.168-0.416,0.41-0.545,0.727C176.306,482.59,176.242,482.955,176.242,483.373z"/>
			<path style="fill:#A7A5AA;" d="M186.615,483.785h-3.181c0.004,0.367,0.078,0.693,0.224,0.977
				c0.145,0.281,0.337,0.494,0.578,0.637c0.241,0.145,0.505,0.215,0.796,0.215c0.194,0,0.372-0.023,0.533-0.068
				c0.161-0.047,0.317-0.117,0.468-0.215c0.151-0.098,0.29-0.201,0.417-0.313c0.128-0.111,0.292-0.264,0.495-0.453
				c0.084-0.072,0.202-0.108,0.358-0.108c0.166,0,0.301,0.047,0.404,0.137c0.103,0.092,0.156,0.221,0.156,0.389
				c0,0.147-0.059,0.316-0.173,0.514c-0.117,0.197-0.29,0.387-0.522,0.566c-0.233,0.182-0.524,0.33-0.876,0.449
				c-0.351,0.121-0.755,0.18-1.212,0.18c-1.044,0-1.857-0.299-2.436-0.895c-0.58-0.596-0.87-1.404-0.87-2.424
				c0-0.48,0.071-0.928,0.215-1.338c0.143-0.412,0.352-0.764,0.625-1.059c0.275-0.293,0.612-0.518,1.014-0.676
				c0.401-0.156,0.847-0.234,1.335-0.234c0.635,0,1.181,0.133,1.635,0.402c0.455,0.267,0.796,0.613,1.022,1.039
				c0.226,0.424,0.34,0.857,0.34,1.299c0,0.408-0.117,0.674-0.351,0.795S187.04,483.785,186.615,483.785z M183.434,482.861h2.95
				c-0.039-0.557-0.19-0.975-0.45-1.25c-0.26-0.275-0.602-0.414-1.027-0.414c-0.406,0-0.739,0.141-0.999,0.42
				C183.647,481.897,183.489,482.313,183.434,482.861z"/>
			<path style="fill:#A7A5AA;" d="M194.027,484.565c0,0.449-0.108,0.834-0.327,1.152c-0.218,0.32-0.542,0.563-0.969,0.729
				c-0.427,0.164-0.946,0.246-1.558,0.246c-0.584,0-1.084-0.09-1.502-0.268c-0.417-0.18-0.725-0.402-0.923-0.67
				c-0.198-0.27-0.297-0.537-0.297-0.809c0-0.18,0.063-0.332,0.19-0.459c0.127-0.127,0.288-0.189,0.483-0.189
				c0.17,0,0.301,0.041,0.393,0.125c0.092,0.082,0.179,0.201,0.262,0.352c0.167,0.291,0.366,0.506,0.599,0.648
				c0.232,0.143,0.549,0.215,0.951,0.215c0.326,0,0.593-0.072,0.802-0.217c0.208-0.146,0.312-0.313,0.312-0.498
				c0-0.287-0.107-0.494-0.325-0.625c-0.217-0.131-0.573-0.258-1.069-0.377c-0.56-0.139-1.016-0.285-1.368-0.438
				c-0.352-0.152-0.633-0.353-0.843-0.603c-0.211-0.252-0.316-0.559-0.316-0.924c0-0.326,0.097-0.635,0.292-0.924
				c0.195-0.289,0.482-0.522,0.862-0.695c0.378-0.172,0.836-0.26,1.373-0.26c0.421,0,0.799,0.045,1.134,0.133
				c0.336,0.086,0.617,0.205,0.841,0.351c0.224,0.147,0.395,0.309,0.512,0.488c0.117,0.178,0.175,0.354,0.175,0.525
				c0,0.186-0.063,0.338-0.187,0.457c-0.125,0.119-0.303,0.18-0.534,0.18c-0.166,0-0.309-0.047-0.426-0.145
				c-0.117-0.094-0.251-0.236-0.402-0.428c-0.122-0.158-0.267-0.285-0.435-0.381c-0.167-0.096-0.393-0.143-0.679-0.143
				c-0.294,0-0.538,0.061-0.733,0.188c-0.195,0.125-0.293,0.279-0.293,0.467c0,0.172,0.072,0.311,0.214,0.42
				c0.144,0.109,0.336,0.201,0.579,0.271c0.242,0.07,0.575,0.158,1.001,0.262c0.504,0.123,0.916,0.271,1.236,0.441
				c0.32,0.17,0.563,0.373,0.728,0.605C193.945,484.002,194.027,484.266,194.027,484.565z"/>
			<path style="fill:#A7A5AA;" d="M195.689,479.32c-0.226,0-0.419-0.068-0.581-0.209c-0.161-0.137-0.242-0.334-0.242-0.59
				c0-0.231,0.083-0.42,0.247-0.568c0.165-0.15,0.357-0.225,0.575-0.225c0.211,0,0.398,0.068,0.56,0.203
				c0.163,0.137,0.245,0.332,0.245,0.59c0,0.252-0.08,0.447-0.239,0.588C196.097,479.25,195.908,479.32,195.689,479.32z
				 M196.494,481.002v4.699c0,0.326-0.077,0.574-0.232,0.74c-0.155,0.166-0.351,0.25-0.59,0.25s-0.433-0.086-0.581-0.256
				c-0.149-0.172-0.224-0.416-0.224-0.734v-4.652c0-0.322,0.074-0.564,0.224-0.727c0.148-0.164,0.342-0.246,0.581-0.246
				s0.435,0.082,0.59,0.246C196.416,480.484,196.494,480.711,196.494,481.002z"/>
			<path style="fill:#A7A5AA;" d="M203.62,481.27v4.725c0,0.541-0.058,1.006-0.174,1.395c-0.114,0.389-0.299,0.711-0.554,0.965
				c-0.253,0.254-0.587,0.443-0.998,0.566c-0.411,0.123-0.922,0.186-1.535,0.186c-0.56,0-1.061-0.08-1.501-0.236
				c-0.44-0.156-0.78-0.359-1.019-0.607c-0.238-0.248-0.358-0.504-0.358-0.766c0-0.199,0.068-0.361,0.203-0.486
				c0.135-0.125,0.298-0.188,0.489-0.188c0.238,0,0.447,0.105,0.626,0.316c0.087,0.107,0.177,0.215,0.271,0.324
				c0.094,0.109,0.197,0.203,0.31,0.281c0.113,0.076,0.249,0.135,0.408,0.172c0.159,0.037,0.343,0.057,0.548,0.057
				c0.422,0,0.748-0.059,0.98-0.176c0.233-0.117,0.396-0.281,0.489-0.492c0.093-0.209,0.148-0.436,0.165-0.676
				c0.016-0.24,0.027-0.627,0.035-1.16c-0.251,0.352-0.539,0.617-0.867,0.801c-0.327,0.182-0.718,0.273-1.17,0.273
				c-0.544,0-1.02-0.139-1.427-0.418c-0.407-0.277-0.721-0.666-0.939-1.168c-0.218-0.5-0.327-1.078-0.327-1.732
				c0-0.488,0.066-0.932,0.199-1.324c0.134-0.393,0.323-0.725,0.569-0.994c0.246-0.272,0.53-0.475,0.852-0.611
				c0.322-0.137,0.675-0.205,1.061-0.205c0.461,0,0.86,0.088,1.198,0.264c0.337,0.178,0.651,0.455,0.941,0.832v-0.221
				c0-0.281,0.069-0.5,0.208-0.656c0.139-0.154,0.318-0.232,0.537-0.232c0.314,0,0.522,0.103,0.625,0.309
				C203.568,480.588,203.62,480.885,203.62,481.27z M198.906,483.33c0,0.66,0.144,1.158,0.432,1.496
				c0.288,0.338,0.661,0.508,1.118,0.508c0.27,0,0.525-0.074,0.765-0.219c0.241-0.145,0.437-0.363,0.588-0.654
				c0.15-0.293,0.226-0.646,0.226-1.064c0-0.662-0.146-1.18-0.438-1.549c-0.293-0.369-0.677-0.555-1.154-0.555
				c-0.465,0-0.837,0.178-1.117,0.531C199.046,482.176,198.906,482.68,198.906,483.33z"/>
			<path style="fill:#A7A5AA;" d="M206.206,480.977v0.197c0.285-0.377,0.598-0.654,0.938-0.832c0.34-0.176,0.729-0.266,1.171-0.266
				c0.429,0,0.812,0.094,1.15,0.281c0.337,0.188,0.59,0.451,0.756,0.791c0.108,0.199,0.177,0.414,0.209,0.645
				c0.032,0.23,0.049,0.525,0.049,0.883v3.025c0,0.326-0.075,0.574-0.224,0.74c-0.149,0.166-0.342,0.25-0.581,0.25
				c-0.243,0-0.439-0.086-0.59-0.256c-0.151-0.172-0.226-0.416-0.226-0.734v-2.711c0-0.535-0.075-0.945-0.224-1.23
				c-0.149-0.283-0.445-0.426-0.891-0.426c-0.29,0-0.554,0.086-0.792,0.26c-0.238,0.174-0.414,0.41-0.524,0.713
				c-0.079,0.242-0.119,0.693-0.119,1.357v2.037c0,0.33-0.077,0.578-0.23,0.744c-0.152,0.164-0.35,0.246-0.592,0.246
				c-0.235,0-0.427-0.086-0.579-0.256c-0.15-0.172-0.226-0.416-0.226-0.734v-4.699c0-0.311,0.068-0.543,0.203-0.695
				c0.135-0.152,0.32-0.23,0.554-0.23c0.143,0,0.272,0.035,0.388,0.103c0.114,0.066,0.207,0.168,0.277,0.303
				C206.17,480.617,206.206,480.783,206.206,480.977z"/>
			<path style="fill:#A7A5AA;" d="M216.101,483.785h-3.181c0.003,0.367,0.078,0.693,0.223,0.977
				c0.145,0.281,0.338,0.494,0.579,0.637c0.239,0.145,0.505,0.215,0.795,0.215c0.195,0,0.373-0.023,0.534-0.068
				c0.16-0.047,0.316-0.117,0.468-0.215c0.15-0.098,0.289-0.201,0.417-0.313c0.126-0.111,0.291-0.264,0.494-0.453
				c0.083-0.072,0.202-0.108,0.358-0.108c0.167,0,0.301,0.047,0.405,0.137c0.104,0.092,0.155,0.221,0.155,0.389
				c0,0.147-0.058,0.316-0.172,0.514c-0.116,0.197-0.289,0.387-0.522,0.566c-0.233,0.182-0.524,0.33-0.876,0.449
				c-0.352,0.121-0.756,0.18-1.212,0.18c-1.045,0-1.857-0.299-2.438-0.895c-0.579-0.596-0.87-1.404-0.87-2.424
				c0-0.48,0.071-0.928,0.214-1.338c0.143-0.412,0.352-0.764,0.626-1.059c0.273-0.293,0.611-0.518,1.012-0.676
				c0.401-0.156,0.847-0.234,1.335-0.234c0.635,0,1.18,0.133,1.635,0.402c0.455,0.267,0.795,0.613,1.022,1.039
				c0.226,0.424,0.34,0.857,0.34,1.299c0,0.408-0.118,0.674-0.352,0.795S216.527,483.785,216.101,483.785z M212.92,482.861h2.949
				c-0.04-0.557-0.19-0.975-0.45-1.25c-0.261-0.275-0.603-0.414-1.028-0.414c-0.406,0-0.739,0.141-0.999,0.42
				C213.133,481.897,212.976,482.313,212.92,482.861z"/>
			<path style="fill:#A7A5AA;" d="M222.732,485.762v-0.16c-0.218,0.25-0.434,0.453-0.646,0.609
				c-0.213,0.158-0.443,0.277-0.691,0.357c-0.248,0.084-0.519,0.123-0.813,0.123c-0.39,0-0.75-0.082-1.082-0.246
				c-0.332-0.166-0.619-0.402-0.861-0.707c-0.243-0.307-0.426-0.664-0.551-1.078c-0.126-0.414-0.189-0.861-0.189-1.34
				c0-1.018,0.249-1.811,0.745-2.379c0.497-0.568,1.15-0.852,1.96-0.852c0.469,0,0.864,0.08,1.186,0.24
				c0.322,0.162,0.636,0.41,0.941,0.742v-2.4c0-0.334,0.067-0.586,0.2-0.758c0.133-0.17,0.324-0.256,0.57-0.256
				c0.246,0,0.435,0.078,0.569,0.236c0.133,0.156,0.2,0.387,0.2,0.693v7.174c0,0.311-0.071,0.543-0.214,0.697
				c-0.144,0.154-0.327,0.232-0.554,0.232c-0.223,0-0.407-0.08-0.551-0.24C222.805,486.289,222.732,486.06,222.732,485.762z
				 M219.533,483.373c0,0.442,0.068,0.817,0.206,1.125c0.136,0.311,0.325,0.545,0.563,0.701c0.238,0.156,0.498,0.236,0.78,0.236
				c0.287,0,0.548-0.076,0.784-0.225c0.236-0.148,0.426-0.377,0.566-0.686c0.142-0.307,0.212-0.693,0.212-1.152
				c0-0.433-0.07-0.807-0.212-1.119c-0.14-0.311-0.331-0.549-0.571-0.715c-0.242-0.164-0.504-0.246-0.791-0.246
				c-0.297,0-0.563,0.084-0.798,0.254c-0.234,0.168-0.417,0.41-0.545,0.727C219.597,482.59,219.533,482.955,219.533,483.373z"/>
			<path style="fill:#A7A5AA;" d="M229.381,478.588v2.484c0.306-0.318,0.618-0.561,0.936-0.73c0.317-0.168,0.711-0.252,1.18-0.252
				c0.54,0,1.013,0.127,1.421,0.383c0.406,0.258,0.722,0.629,0.947,1.115c0.225,0.486,0.337,1.064,0.337,1.732
				c0,0.492-0.064,0.943-0.189,1.353c-0.125,0.412-0.307,0.768-0.545,1.07c-0.238,0.301-0.528,0.535-0.867,0.701
				c-0.34,0.164-0.714,0.246-1.123,0.246c-0.25,0-0.486-0.029-0.706-0.09c-0.221-0.059-0.409-0.137-0.564-0.234
				c-0.154-0.098-0.287-0.197-0.395-0.301c-0.109-0.104-0.254-0.26-0.433-0.465v0.16c0,0.307-0.074,0.537-0.221,0.695
				c-0.146,0.156-0.333,0.234-0.56,0.234c-0.23,0-0.414-0.078-0.551-0.234c-0.137-0.158-0.205-0.389-0.205-0.695v-7.103
				c0-0.328,0.066-0.578,0.199-0.746c0.133-0.17,0.319-0.254,0.557-0.254c0.251,0,0.444,0.08,0.579,0.24
				C229.314,478.06,229.381,478.289,229.381,478.588z M229.459,483.42c0,0.648,0.148,1.145,0.444,1.492
				c0.295,0.348,0.684,0.523,1.165,0.523c0.409,0,0.762-0.178,1.058-0.535c0.296-0.355,0.444-0.863,0.444-1.527
				c0-0.43-0.061-0.799-0.184-1.109c-0.124-0.309-0.298-0.549-0.524-0.717c-0.227-0.17-0.491-0.254-0.793-0.254
				c-0.31,0-0.587,0.084-0.828,0.254c-0.242,0.168-0.433,0.412-0.572,0.732C229.528,482.598,229.459,482.978,229.459,483.42z"/>
			<path style="fill:#A7A5AA;" d="M236.311,486.895l0.149-0.363l-2.002-5.041c-0.123-0.291-0.185-0.502-0.185-0.633
				c0-0.139,0.037-0.268,0.108-0.387c0.072-0.119,0.17-0.215,0.295-0.285c0.126-0.072,0.255-0.109,0.39-0.109
				c0.234,0,0.411,0.076,0.531,0.225c0.12,0.148,0.224,0.361,0.316,0.641l1.376,4.004l1.305-3.725
				c0.103-0.301,0.197-0.537,0.281-0.709c0.083-0.17,0.171-0.285,0.265-0.344c0.093-0.061,0.225-0.092,0.396-0.092
				c0.124,0,0.241,0.033,0.354,0.1c0.113,0.066,0.2,0.154,0.262,0.266c0.061,0.111,0.093,0.228,0.093,0.352
				c-0.017,0.074-0.042,0.182-0.078,0.322c-0.036,0.137-0.08,0.279-0.131,0.422l-2.121,5.555c-0.183,0.488-0.362,0.871-0.537,1.148
				c-0.175,0.277-0.406,0.492-0.694,0.641c-0.289,0.15-0.676,0.225-1.165,0.225c-0.477,0-0.834-0.053-1.072-0.154
				c-0.239-0.105-0.358-0.293-0.358-0.568c0-0.186,0.057-0.33,0.17-0.432c0.113-0.1,0.281-0.152,0.502-0.152
				c0.087,0,0.173,0.012,0.257,0.037c0.104,0.023,0.192,0.035,0.267,0.035c0.186,0,0.334-0.027,0.441-0.084
				c0.107-0.055,0.204-0.15,0.29-0.289C236.102,487.363,236.2,487.16,236.311,486.895z"/>
		</g>
		<g>
			<path style="fill:#A7A5AA;" d="M259.877,480.219h0.389v-0.488c0-0.512,0.063-0.914,0.191-1.217
				c0.129-0.299,0.35-0.518,0.656-0.654c0.309-0.137,0.73-0.205,1.266-0.205c0.953,0,1.426,0.23,1.426,0.699
				c0,0.149-0.049,0.279-0.15,0.385c-0.098,0.107-0.215,0.162-0.35,0.162c-0.063,0-0.176-0.012-0.332-0.039
				c-0.148-0.02-0.283-0.033-0.391-0.033c-0.293,0-0.48,0.088-0.566,0.26c-0.08,0.172-0.123,0.42-0.123,0.742v0.389h0.396
				c0.621,0,0.93,0.185,0.93,0.56c0,0.264-0.08,0.434-0.246,0.506c-0.164,0.07-0.393,0.107-0.684,0.107h-0.396v4.31
				c0,0.32-0.076,0.565-0.232,0.732c-0.15,0.17-0.348,0.254-0.59,0.254c-0.23,0-0.422-0.084-0.576-0.254
				c-0.154-0.168-0.228-0.412-0.228-0.732v-4.31h-0.449c-0.242,0-0.428-0.053-0.561-0.164c-0.131-0.107-0.197-0.252-0.197-0.426
				C259.059,480.41,259.332,480.219,259.877,480.219"/>
			<path style="fill:#A7A5AA;" d="M265.203,484.342v1.361c0,0.328-0.084,0.576-0.234,0.74c-0.156,0.166-0.352,0.246-0.588,0.246
				c-0.24,0-0.432-0.082-0.582-0.25c-0.148-0.166-0.227-0.412-0.227-0.736v-4.531c0-0.732,0.264-1.098,0.791-1.098
				c0.272,0,0.467,0.084,0.586,0.256c0.119,0.172,0.186,0.422,0.199,0.758c0.193-0.336,0.391-0.586,0.596-0.758
				c0.207-0.172,0.479-0.256,0.82-0.256c0.346,0,0.674,0.084,0.994,0.256c0.324,0.172,0.484,0.4,0.484,0.682
				c0,0.197-0.068,0.363-0.205,0.488c-0.137,0.133-0.283,0.197-0.441,0.197c-0.062,0-0.209-0.041-0.436-0.113
				c-0.229-0.072-0.432-0.109-0.604-0.109c-0.238,0-0.434,0.064-0.584,0.188c-0.152,0.129-0.271,0.313-0.355,0.557
				c-0.08,0.248-0.137,0.543-0.17,0.881C265.217,483.44,265.203,483.853,265.203,484.342"/>
			<path style="fill:#A7A5AA;" d="M272.682,483.783h-3.184c0.006,0.367,0.078,0.695,0.223,0.977c0.148,0.281,0.34,0.494,0.58,0.639
				c0.242,0.143,0.504,0.213,0.797,0.213c0.193,0,0.371-0.021,0.531-0.07c0.16-0.043,0.318-0.115,0.469-0.213
				c0.152-0.096,0.289-0.199,0.416-0.314c0.127-0.109,0.293-0.26,0.496-0.451c0.084-0.07,0.203-0.109,0.355-0.109
				c0.17,0,0.303,0.047,0.408,0.141c0.104,0.092,0.152,0.219,0.152,0.387c0,0.148-0.055,0.318-0.168,0.514
				c-0.117,0.199-0.289,0.387-0.523,0.568c-0.234,0.18-0.527,0.332-0.877,0.447c-0.352,0.121-0.758,0.18-1.213,0.18
				c-1.047,0-1.859-0.295-2.438-0.891c-0.58-0.598-0.873-1.408-0.873-2.428c0-0.48,0.074-0.928,0.219-1.34
				c0.141-0.412,0.35-0.762,0.625-1.059c0.273-0.295,0.609-0.52,1.012-0.676c0.4-0.156,0.846-0.234,1.336-0.234
				c0.635,0,1.18,0.135,1.635,0.404c0.455,0.266,0.799,0.613,1.021,1.039c0.227,0.426,0.34,0.857,0.34,1.301
				c0,0.406-0.117,0.672-0.352,0.793C273.435,483.723,273.107,483.783,272.682,483.783 M269.498,482.857h2.949
				c-0.039-0.555-0.186-0.973-0.447-1.246c-0.262-0.277-0.602-0.414-1.029-0.414c-0.404,0-0.738,0.137-0.998,0.42
				C269.713,481.897,269.553,482.31,269.498,482.857"/>
			<path style="fill:#A7A5AA;" d="M279.449,483.783h-3.184c0.004,0.367,0.08,0.695,0.223,0.977c0.147,0.281,0.338,0.494,0.578,0.639
				c0.24,0.143,0.506,0.213,0.799,0.213c0.191,0,0.371-0.021,0.529-0.07c0.162-0.043,0.316-0.115,0.471-0.213
				c0.152-0.096,0.289-0.199,0.416-0.314c0.125-0.109,0.291-0.26,0.494-0.451c0.086-0.07,0.205-0.109,0.357-0.109
				c0.168,0,0.303,0.047,0.408,0.141c0.104,0.092,0.15,0.219,0.15,0.387c0,0.148-0.055,0.318-0.172,0.514
				c-0.111,0.199-0.285,0.387-0.522,0.568c-0.23,0.18-0.525,0.332-0.875,0.447c-0.35,0.121-0.758,0.18-1.213,0.18
				c-1.047,0-1.857-0.295-2.439-0.891c-0.578-0.598-0.871-1.408-0.871-2.428c0-0.48,0.074-0.928,0.219-1.34
				c0.143-0.412,0.35-0.762,0.625-1.059c0.273-0.295,0.609-0.52,1.012-0.676c0.4-0.156,0.848-0.234,1.336-0.234
				c0.633,0,1.178,0.135,1.641,0.404c0.451,0.266,0.793,0.613,1.016,1.039c0.227,0.426,0.342,0.857,0.342,1.301
				c0,0.406-0.119,0.672-0.352,0.793C280.203,483.723,279.873,483.783,279.449,483.783 M276.266,482.857h2.951
				c-0.041-0.555-0.191-0.973-0.449-1.246c-0.264-0.277-0.603-0.414-1.031-0.414c-0.404,0-0.736,0.137-0.998,0.42
				C276.478,481.897,276.318,482.31,276.266,482.857"/>
			<path style="fill:#A7A5AA;" d="M283.012,480.99v0.193c0.307-0.377,0.625-0.652,0.957-0.83c0.326-0.178,0.701-0.268,1.119-0.268
				c0.498,0,0.963,0.131,1.383,0.387c0.422,0.26,0.752,0.637,0.998,1.133c0.244,0.5,0.367,1.086,0.367,1.766
				c0,0.5-0.07,0.961-0.211,1.381c-0.141,0.42-0.336,0.77-0.582,1.055c-0.248,0.281-0.537,0.502-0.873,0.656
				c-0.34,0.15-0.697,0.227-1.082,0.227c-0.465,0-0.857-0.092-1.172-0.279c-0.314-0.184-0.615-0.461-0.904-0.82v2.443
				c0,0.711-0.26,1.072-0.779,1.072c-0.309,0-0.508-0.092-0.609-0.275c-0.096-0.188-0.146-0.455-0.146-0.811v-7.022
				c0-0.31,0.066-0.539,0.201-0.695c0.135-0.15,0.32-0.229,0.555-0.229c0.23,0,0.418,0.078,0.561,0.234
				C282.941,480.469,283.012,480.691,283.012,480.99 M286.201,483.353c0-0.43-0.066-0.799-0.197-1.105
				c-0.131-0.31-0.313-0.545-0.543-0.709c-0.23-0.164-0.49-0.248-0.773-0.248c-0.447,0-0.826,0.178-1.135,0.529
				c-0.309,0.355-0.463,0.875-0.463,1.564c0,0.643,0.152,1.15,0.461,1.51c0.307,0.359,0.682,0.537,1.137,0.537
				c0.27,0,0.522-0.078,0.752-0.232c0.232-0.158,0.418-0.393,0.555-0.707C286.133,484.178,286.201,483.797,286.201,483.353"/>
			<path style="fill:#A7A5AA;" d="M289.475,479.316c-0.228,0-0.42-0.07-0.58-0.209c-0.162-0.141-0.242-0.334-0.242-0.588
				c0-0.23,0.082-0.42,0.248-0.572c0.164-0.146,0.355-0.223,0.574-0.223c0.213,0,0.398,0.066,0.561,0.201
				c0.162,0.137,0.244,0.334,0.244,0.594c0,0.25-0.078,0.445-0.236,0.586C289.883,479.246,289.695,479.316,289.475,479.316
				 M290.279,480.998v4.705c0,0.324-0.078,0.57-0.232,0.736c-0.156,0.168-0.352,0.25-0.59,0.25c-0.238,0-0.43-0.084-0.582-0.254
				c-0.147-0.174-0.223-0.418-0.223-0.732v-4.66c0-0.318,0.076-0.561,0.223-0.723c0.152-0.166,0.344-0.246,0.582-0.246
				c0.238,0,0.434,0.08,0.59,0.246C290.201,480.482,290.279,480.711,290.279,480.998"/>
			<path style="fill:#A7A5AA;" d="M295.523,485.947l-1.432-2.361l-0.885,0.832v1.297c0,0.313-0.082,0.553-0.248,0.721
				c-0.16,0.17-0.356,0.254-0.568,0.254c-0.25,0-0.449-0.082-0.59-0.25c-0.143-0.166-0.217-0.412-0.217-0.736v-6.941
				c0-0.359,0.072-0.635,0.209-0.824c0.139-0.191,0.342-0.283,0.598-0.283c0.25,0,0.447,0.086,0.596,0.258
				c0.146,0.17,0.221,0.422,0.221,0.754v3.947l1.83-1.92c0.227-0.236,0.397-0.402,0.52-0.488c0.119-0.088,0.262-0.131,0.432-0.131
				c0.205,0,0.373,0.065,0.512,0.193c0.133,0.129,0.201,0.293,0.201,0.484c0,0.238-0.223,0.558-0.662,0.955l-0.863,0.793
				l1.668,2.623c0.121,0.197,0.213,0.342,0.266,0.443c0.053,0.1,0.082,0.201,0.082,0.289c0,0.26-0.072,0.461-0.213,0.613
				c-0.143,0.148-0.33,0.221-0.557,0.221c-0.199,0-0.354-0.051-0.461-0.16C295.855,486.422,295.707,486.227,295.523,485.947"/>
			<path style="fill:#A7A5AA;" d="M299.06,486.69c-0.246,0-0.457-0.078-0.637-0.238c-0.178-0.156-0.27-0.379-0.27-0.668
				c0-0.242,0.088-0.451,0.258-0.623c0.172-0.176,0.381-0.264,0.633-0.264c0.25,0,0.461,0.088,0.641,0.258
				c0.176,0.174,0.266,0.385,0.266,0.629c0,0.283-0.09,0.508-0.266,0.664C299.506,486.611,299.297,486.69,299.06,486.69"/>
			<path style="fill:#A7A5AA;" d="M307.152,484.676c0,0.201-0.06,0.42-0.184,0.65c-0.119,0.23-0.305,0.449-0.555,0.658
				c-0.248,0.207-0.561,0.377-0.938,0.504c-0.377,0.127-0.805,0.191-1.275,0.191c-1.008,0-1.793-0.295-2.357-0.879
				c-0.561-0.586-0.844-1.373-0.844-2.357c0-0.67,0.129-1.26,0.389-1.773c0.256-0.51,0.631-0.906,1.117-1.188
				c0.49-0.281,1.076-0.42,1.754-0.42c0.422,0,0.807,0.06,1.162,0.185c0.352,0.121,0.646,0.283,0.893,0.475
				c0.244,0.197,0.432,0.404,0.559,0.623c0.131,0.221,0.193,0.428,0.193,0.619c0,0.193-0.07,0.359-0.215,0.494
				c-0.148,0.135-0.324,0.203-0.527,0.203c-0.137,0-0.248-0.035-0.338-0.104c-0.092-0.07-0.191-0.182-0.301-0.34
				c-0.199-0.301-0.406-0.529-0.625-0.678c-0.215-0.152-0.49-0.226-0.824-0.226c-0.479,0-0.867,0.185-1.162,0.563
				c-0.295,0.373-0.441,0.891-0.441,1.539c0,0.307,0.039,0.59,0.113,0.846c0.074,0.256,0.184,0.475,0.328,0.656
				c0.145,0.18,0.316,0.316,0.518,0.41c0.203,0.096,0.428,0.141,0.668,0.141c0.326,0,0.605-0.074,0.838-0.227
				c0.236-0.15,0.441-0.381,0.619-0.691c0.1-0.182,0.205-0.324,0.318-0.428c0.115-0.103,0.258-0.156,0.424-0.156
				c0.199,0,0.365,0.076,0.494,0.227C307.086,484.344,307.152,484.506,307.152,484.676"/>
			<path style="fill:#A7A5AA;" d="M314.172,483.383c0,0.484-0.076,0.932-0.223,1.342c-0.154,0.41-0.371,0.762-0.658,1.055
				c-0.285,0.293-0.629,0.52-1.023,0.678c-0.402,0.154-0.848,0.234-1.342,0.234c-0.492,0-0.938-0.08-1.33-0.24
				c-0.393-0.156-0.736-0.385-1.022-0.68c-0.289-0.299-0.508-0.649-0.66-1.051c-0.143-0.404-0.219-0.85-0.219-1.338
				c0-0.492,0.078-0.943,0.225-1.354c0.152-0.41,0.369-0.76,0.652-1.049c0.283-0.291,0.623-0.514,1.023-0.672
				c0.402-0.156,0.846-0.234,1.33-0.234c0.492,0,0.939,0.078,1.342,0.24c0.4,0.156,0.742,0.385,1.031,0.676
				c0.287,0.299,0.504,0.646,0.652,1.049C314.098,482.447,314.172,482.893,314.172,483.383 M312.539,483.383
				c0-0.664-0.147-1.18-0.438-1.549c-0.291-0.373-0.684-0.557-1.176-0.557c-0.318,0-0.6,0.084-0.842,0.248
				c-0.244,0.164-0.428,0.406-0.559,0.73c-0.131,0.322-0.199,0.697-0.199,1.127c0,0.426,0.064,0.797,0.195,1.113
				c0.131,0.32,0.314,0.563,0.555,0.732c0.242,0.166,0.525,0.254,0.85,0.254c0.492,0,0.885-0.188,1.176-0.56
				C312.393,484.551,312.539,484.037,312.539,483.383"/>
			<path style="fill:#A7A5AA;" d="M320.379,483.504v2.162c0,0.342-0.076,0.596-0.232,0.77c-0.156,0.17-0.357,0.256-0.613,0.256
				c-0.246,0-0.447-0.086-0.596-0.256c-0.156-0.174-0.234-0.428-0.234-0.77v-2.592c0-0.41-0.014-0.73-0.039-0.957
				c-0.029-0.221-0.105-0.41-0.229-0.555c-0.123-0.147-0.318-0.219-0.584-0.219c-0.533,0-0.883,0.182-1.051,0.553
				c-0.168,0.361-0.256,0.885-0.256,1.572v2.197c0,0.336-0.076,0.594-0.227,0.768c-0.156,0.17-0.355,0.258-0.605,0.258
				c-0.248,0-0.449-0.088-0.605-0.258c-0.158-0.174-0.236-0.432-0.236-0.768v-4.654c0-0.309,0.07-0.541,0.211-0.697
				c0.143-0.162,0.33-0.24,0.557-0.24c0.225,0,0.41,0.076,0.56,0.223c0.148,0.15,0.223,0.355,0.223,0.617v0.154
				c0.283-0.336,0.586-0.584,0.906-0.74c0.322-0.164,0.678-0.242,1.074-0.242c0.408,0,0.76,0.082,1.053,0.244
				c0.293,0.164,0.535,0.412,0.727,0.738c0.275-0.332,0.57-0.578,0.885-0.74c0.314-0.162,0.66-0.242,1.043-0.242
				c0.443,0,0.83,0.09,1.15,0.262c0.32,0.176,0.56,0.428,0.721,0.75c0.139,0.297,0.207,0.76,0.207,1.391v3.178
				c0,0.342-0.076,0.596-0.23,0.77c-0.154,0.17-0.361,0.256-0.615,0.256c-0.246,0-0.447-0.088-0.605-0.258
				c-0.156-0.174-0.234-0.432-0.234-0.768v-2.736c0-0.352-0.016-0.629-0.045-0.84c-0.029-0.211-0.109-0.389-0.24-0.531
				c-0.133-0.143-0.332-0.215-0.598-0.215c-0.215,0-0.418,0.066-0.611,0.191c-0.191,0.125-0.342,0.299-0.451,0.51
				C320.439,482.32,320.379,482.807,320.379,483.504"/>
		</g>
		<g>
			<path style="fill:#A7A5AA;" d="M244.652,482.99c-0.001-0.004-0.001-0.006-0.001-0.012
				C244.651,482.984,244.651,482.986,244.652,482.99z"/>
			<path style="fill:#A7A5AA;" d="M244.734,483.51c0.001,0,0.001,0,0.001,0c-0.031-0.148-0.055-0.295-0.074-0.439
				C244.681,483.215,244.705,483.363,244.734,483.51z"/>
			<path style="fill:#A7A5AA;" d="M245.272,485.02c-0.003-0.006-0.006-0.014-0.01-0.022
				C245.267,485.006,245.269,485.014,245.272,485.02z"/>
			<path style="fill:#A7A5AA;" d="M245.221,484.92c-0.014-0.029-0.027-0.057-0.04-0.084
				C245.194,484.865,245.207,484.891,245.221,484.92z"/>
			<path style="fill:#A7A5AA;" d="M244.885,484.092c0.079,0.25,0.176,0.494,0.287,0.727c-0.113-0.238-0.207-0.48-0.284-0.727
				C244.888,484.092,244.887,484.092,244.885,484.092z"/>
			<path style="fill:#A7A5AA;" d="M250.95,476.756c0.314,0,0.546,0.025,0.812,0.07l0.076-0.479c0,0-0.734-0.227-1.701-0.146
				l-0.076-0.262c0.3-0.063,0.525-0.33,0.525-0.649c0-0.365-0.298-0.66-0.663-0.66c-0.366,0-0.663,0.295-0.663,0.66
				c0,0.318,0.225,0.586,0.525,0.649l0.084,0.291c-1.025,0.141-1.841,0.541-1.841,0.541l0.145,0.441
				c0.62-0.205,1.158-0.332,1.646-0.385C250.296,476.777,250.657,476.756,250.95,476.756z"/>
			<path style="fill:#A7A5AA;" d="M245.26,479.176l0.004-0.004c0.024-0.031,0.047-0.061,0.071-0.09l-0.196-0.141l-0.307-0.225
				c-0.017,0.023-0.498,0.467-0.878,1.285c-0.016-0.025-0.036-0.051-0.057-0.074c-0.114-0.125-0.273-0.189-0.476-0.186
				c-0.003,0-0.006,0-0.009,0c-0.125,0-0.211-0.041-0.268-0.092c0.056-0.072,0.09-0.16,0.09-0.26c0-0.23-0.189-0.42-0.42-0.42
				c-0.232,0-0.419,0.189-0.419,0.42c0,0.232,0.188,0.42,0.419,0.42c0.037,0,0.071-0.006,0.105-0.014
				c0.104,0.115,0.266,0.215,0.506,0.211c0.124-0.002,0.214,0.029,0.274,0.098c0.07,0.076,0.093,0.185,0.101,0.267
				c-0.001,0.002-0.001,0.004-0.003,0.004c-0.273,0.746-0.195,1.674-0.195,1.674l0.663,0.027c0.013-0.338,0.063-0.93,0.233-1.4
				C244.83,479.77,245.244,479.201,245.26,479.176z"/>
			<path style="fill:#A7A5AA;" d="M256.721,477.31c-0.23,0-0.42,0.188-0.42,0.42c0,0.035,0.006,0.07,0.016,0.104
				c-0.115,0.103-0.215,0.268-0.213,0.508c0.002,0.125-0.029,0.213-0.096,0.273c-0.053,0.049-0.121,0.072-0.185,0.09
				c-0.494-0.693-1.102-1.115-1.102-1.115l-0.477,0.512c0.359,0.326,0.727,0.736,1.084,1.248c0.248,0.353,0.502,0.809,0.713,1.264
				l0.643-0.305c0,0-0.293-0.725-0.705-1.375c0.07-0.025,0.143-0.064,0.207-0.121c0.125-0.113,0.188-0.273,0.184-0.475
				c-0.002-0.131,0.041-0.219,0.094-0.277c0.07,0.055,0.16,0.09,0.258,0.09c0.232,0,0.42-0.189,0.42-0.42
				C257.141,477.498,256.953,477.31,256.721,477.31z"/>
			<path style="fill:#A7A5AA;" d="M255.053,483.084c-0.883,0.43-2.338,1-4.253,1.266c-0.752,0.105-1.48,0.145-2.151,0.145
				c-0.872,0-1.643-0.066-2.235-0.141c-0.675-0.086-1.203-0.189-1.525-0.262c0.077,0.246,0.171,0.488,0.284,0.727
				c0.002,0.006,0.005,0.012,0.009,0.018c0.013,0.027,0.027,0.055,0.04,0.084c0.013,0.027,0.027,0.053,0.041,0.078
				c0.004,0.008,0.007,0.016,0.01,0.022c0.19,0.358,0.418,0.688,0.678,0.971c0.904,0.988,1.824,1.145,1.832,1.146l0.015,0.002
				l0.014,0.006c0.008,0.002,0.824,0.266,2.065,0.266c1.219,0,2.418-0.246,3.559-0.732c0.846-0.432,1.645-1.09,2.041-1.674
				c0.307-0.455,0.527-0.938,0.658-1.439c0.07-0.268,0.125-0.695,0.094-1.147C255.979,482.586,255.586,482.824,255.053,483.084z"/>
			<path style="fill:#A7A5AA;" d="M245.544,479.387c-0.025,0.037-0.409,0.58-0.712,1.412c-0.227,0.625-0.217,1.533-0.217,1.543
				v0.002c0,0.215,0.012,0.426,0.036,0.635c0,0.006,0,0.008,0.001,0.012c0.003,0.027,0.007,0.053,0.009,0.08
				c0.019,0.145,0.044,0.291,0.074,0.439c0.44,0.111,3.061,0.723,5.99,0.314c1.836-0.256,3.231-0.797,4.077-1.209
				c0.705-0.34,1.156-0.648,1.332-0.775c-0.176-0.646-0.654-1.658-1.094-2.289c-1.258-1.797-2.615-2.258-3.313-2.373
				c-0.266-0.043-0.479-0.068-0.779-0.068c-0.281,0-0.629,0.023-1.094,0.072c-0.466,0.047-0.986,0.17-1.589,0.373
				c-0.845,0.283-1.61,0.727-2.213,1.285l-0.02,0.02C245.945,478.941,245.759,479.113,245.544,479.387z M253.242,478.967
				c0.604,0,1.094,0.49,1.094,1.094c0,0.604-0.49,1.096-1.094,1.096s-1.094-0.492-1.094-1.096
				C252.148,479.457,252.639,478.967,253.242,478.967z M248.071,478.924c0.977,0,1.767,0.791,1.767,1.768s-0.79,1.766-1.767,1.766
				c-0.976,0-1.767-0.789-1.767-1.766S247.096,478.924,248.071,478.924z"/>
		</g>
	</g>
</g>
</svg>
