<?xml version="1.0" encoding="UTF-8"?>
<svg id="object" xmlns="http://www.w3.org/2000/svg" viewBox="0 0 118.46 119.04">
  <defs>
    <style>
      .cls-1 {
        fill: #fff;
        stroke: #fff;
        stroke-miterlimit: 10;
        stroke-width: 4px;
      }
    </style>
  </defs>
  <g>
    <g>
      <path class="cls-1" d="m3.16,114.91c-.64,0-1.16-.53-1.16-1.18V3.18c0-.46.26-.88.67-1.07.41-.19.9-.13,1.24.17l55.31,47.69L114.54,2.28c.49-.42,1.22-.36,1.64.13.42.5.36,1.24-.13,1.66l-56.07,48.33c-.43.37-1.07.37-1.5,0L4.32,5.72v108.01c0,.65-.52,1.18-1.16,1.18Z"/>
      <path class="cls-1" d="m115.29,114.63c-.64,0-1.16-.53-1.16-1.18V27.86l-54.15,46.68c-.43.37-1.07.37-1.5,0L14.16,36.34c-.49-.42-.55-1.16-.13-1.66.42-.5,1.15-.56,1.64-.13l43.56,37.55,55.31-47.69c.34-.3.83-.36,1.24-.17.41.19.67.61.67,1.07v88.14c0,.65-.52,1.18-1.16,1.18Z"/>
    </g>
    <path class="cls-1" d="m115.29,114.63h-56.07c-.64,0-1.16-.53-1.16-1.18s.52-1.18,1.16-1.18h56.07c.64,0,1.16.53,1.16,1.18s-.52,1.18-1.16,1.18Z"/>
  </g>
  <path class="cls-1" d="m44.94,117.04c-2.59,0-4.7-2.14-4.7-4.76s2.11-4.76,4.7-4.76,4.7,2.14,4.7,4.76-2.11,4.76-4.7,4.76Zm0-7.17c-1.31,0-2.38,1.08-2.38,2.41s1.07,2.41,2.38,2.41,2.38-1.08,2.38-2.41-1.07-2.41-2.38-2.41Z"/>
</svg>